<svg width="619" height="488" viewBox="0 0 619 488" fill="none" xmlns="http://www.w3.org/2000/svg">
<g id="success 1" clip-path="url(#clip0_5_2)">
<g id="Vector" filter="url(#filter0_d_5_2)">
<path d="M148.532 264.22C143.595 237.794 151.368 207.73 172.975 191.734C171.751 220.943 180.897 249.644 198.797 272.759C205.732 281.649 214.372 290.814 214.104 302.085C213.937 309.099 210.144 315.633 205.145 320.555C200.146 325.477 193.989 329.026 187.905 332.52L186.958 333.993C169.124 313.877 153.47 290.647 148.532 264.22Z" fill="#F0F0F0"/>
</g>
<path id="Vector_2" d="M173.369 192.138C164.291 212.454 161.846 235.114 166.38 256.899C167.272 261.606 168.902 266.143 171.207 270.343C173.585 274.362 176.996 277.67 181.086 279.925C184.856 282.104 188.965 283.896 192.141 286.953C193.743 288.542 194.991 290.452 195.803 292.557C196.616 294.663 196.974 296.916 196.854 299.169C196.702 304.792 194.539 310.025 192.245 315.068C189.699 320.668 186.966 326.444 187.131 332.74C187.151 333.503 185.966 333.489 185.946 332.728C185.659 321.774 193.578 312.977 195.342 302.466C196.166 297.562 195.516 292.38 192.068 288.578C189.053 285.254 184.817 283.402 180.98 281.229C176.959 279.088 173.523 275.995 170.972 272.22C168.46 268.151 166.659 263.685 165.645 259.012C163.196 248.527 162.41 237.722 163.317 226.994C164.284 214.744 167.34 202.749 172.352 191.529C172.662 190.835 173.677 191.448 173.369 192.138L173.369 192.138Z" fill="#478A6A" fill-opacity="0.5"/>
<path id="Vector_3" d="M164.589 250.915C160.831 251.179 157.101 250.099 154.065 247.867C151.03 245.636 148.886 242.397 148.018 238.731C147.845 237.989 148.99 237.685 149.164 238.428C149.966 241.844 151.963 244.86 154.794 246.932C157.625 249.005 161.103 249.997 164.601 249.73C165.362 249.673 165.345 250.858 164.589 250.915V250.915Z" fill="#478A6A" fill-opacity="0.5"/>
<path id="Vector_4" d="M179.028 279.072C184.13 273.303 186.87 265.822 186.702 258.122C186.685 257.359 187.869 257.372 187.887 258.134C188.047 266.148 185.18 273.926 179.857 279.919C179.35 280.489 178.523 279.64 179.028 279.072V279.072Z" fill="#478A6A" fill-opacity="0.5"/>
<path id="Vector_5" d="M165.673 215.479C167.148 215.68 168.65 215.511 170.044 214.988C171.439 214.464 172.681 213.603 173.66 212.481C174.16 211.904 174.986 212.754 174.489 213.327C173.401 214.562 172.028 215.512 170.489 216.093C168.95 216.675 167.292 216.871 165.66 216.664C165.505 216.657 165.358 216.592 165.249 216.481C165.14 216.37 165.077 216.221 165.074 216.065C165.076 215.909 165.141 215.759 165.253 215.649C165.365 215.54 165.516 215.478 165.673 215.479H165.673Z" fill="#478A6A" fill-opacity="0.5"/>
<g id="Vector_6" filter="url(#filter1_d_5_2)">
<path d="M261.334 213.592C261.032 213.962 260.73 214.331 260.43 214.71C256.394 219.693 252.77 224.997 249.593 230.568C249.341 230.995 249.091 231.431 248.852 231.864C241.341 245.367 236.402 260.147 234.287 275.453C233.451 281.544 233.079 287.69 233.175 293.838C233.309 302.328 234.129 311.523 231.527 319.331C231.264 320.149 230.952 320.95 230.59 321.729L188.829 335.034C188.718 335.017 188.611 335.009 188.5 334.992L186.857 335.599C186.83 335.283 186.809 334.954 186.782 334.637C186.765 334.453 186.758 334.267 186.741 334.083C186.733 333.96 186.726 333.836 186.711 333.725C186.709 333.684 186.706 333.643 186.706 333.611C186.692 333.5 186.691 333.396 186.679 333.295C186.555 331.455 186.44 329.613 186.345 327.765C186.342 327.756 186.342 327.756 186.348 327.743C185.631 313.666 186.083 299.406 188.686 285.668C188.764 285.255 188.839 284.832 188.936 284.413C190.144 278.227 191.855 272.149 194.052 266.242C195.265 263.011 196.642 259.844 198.176 256.752C202.154 248.772 207.364 241.467 213.612 235.105C226.071 222.424 242.447 213.869 259.993 213.6C260.442 213.593 260.882 213.589 261.334 213.592Z" fill="#F0F0F0"/>
</g>
<path id="Vector_7" d="M261.718 213.172C242.239 223.928 226.643 240.549 217.147 260.673C215.026 264.969 213.595 269.572 212.908 274.314C212.387 278.954 213.118 283.649 215.026 287.911C216.725 291.921 218.927 295.826 219.622 300.179C219.944 302.412 219.791 304.689 219.172 306.859C218.553 309.029 217.482 311.043 216.03 312.771C212.523 317.168 207.646 320.044 202.778 322.69C197.373 325.628 191.713 328.595 188.054 333.721C187.611 334.342 186.673 333.618 187.116 332.998C193.481 324.079 205.101 321.823 212.838 314.493C216.448 311.073 219.049 306.544 218.585 301.433C218.179 296.963 215.912 292.934 214.157 288.889C212.235 284.759 211.353 280.22 211.59 275.671C212.034 270.91 213.285 266.259 215.289 261.917C219.646 252.071 225.524 242.971 232.707 234.951C240.855 225.752 250.516 218.015 261.273 212.074C261.939 211.707 262.38 212.807 261.718 213.172V213.172Z" fill="#478A6A" fill-opacity="0.5"/>
<path id="Vector_8" d="M219.514 254.993C216.354 252.941 214.026 249.833 212.946 246.224C211.866 242.614 212.104 238.738 213.618 235.288C213.927 234.591 215.024 235.038 214.715 235.736C213.3 238.946 213.078 242.557 214.091 245.916C215.103 249.275 217.283 252.161 220.237 254.054C220.879 254.467 220.152 255.403 219.514 254.993H219.514Z" fill="#478A6A" fill-opacity="0.5"/>
<path id="Vector_9" d="M213.588 286.972C221.135 285.437 227.826 281.114 232.328 274.865C232.773 274.245 233.711 274.969 233.266 275.588C228.57 282.082 221.597 286.567 213.74 288.147C212.991 288.297 212.843 287.121 213.588 286.972V286.972Z" fill="#478A6A" fill-opacity="0.5"/>
<path id="Vector_10" d="M241.211 228.156C242.268 229.204 243.569 229.974 244.998 230.395C246.426 230.817 247.936 230.877 249.394 230.57C250.14 230.411 250.288 231.587 249.546 231.745C247.934 232.076 246.266 232.008 244.687 231.546C243.108 231.084 241.666 230.242 240.488 229.094C240.367 228.995 240.289 228.854 240.269 228.7C240.249 228.546 240.289 228.39 240.38 228.263C240.476 228.139 240.618 228.059 240.773 228.039C240.929 228.018 241.086 228.06 241.211 228.156V228.156Z" fill="#478A6A" fill-opacity="0.5"/>
<path id="Vector_11" d="M326.932 69.0837C327.072 69.6987 327.163 70.3238 327.205 70.9532L376.169 99.2005L388.071 92.349L400.758 108.959L380.868 123.136C379.261 124.281 377.326 124.874 375.353 124.826C373.381 124.778 371.477 124.091 369.928 122.869L319.437 83.0368C317.158 83.8802 314.677 84.01 312.323 83.4088C309.969 82.8076 307.853 81.5039 306.258 79.6711C304.663 77.8383 303.664 75.5634 303.393 73.1487C303.122 70.7341 303.593 68.2944 304.743 66.1539C305.893 64.0135 307.667 62.2738 309.83 61.1663C311.992 60.0588 314.441 59.6359 316.85 59.954C319.259 60.272 321.514 61.3159 323.315 62.9468C325.116 64.5777 326.377 66.7182 326.932 69.0838V69.0837Z" fill="#FFB6B6"/>
<path id="Vector_12" d="M376.849 96.0817C377.004 95.3611 377.313 94.6826 377.755 94.0923C378.196 93.5021 378.76 93.014 379.407 92.6615L402.013 80.3445C405.023 78.0725 408.812 77.087 412.548 77.6042C416.284 78.1214 419.662 80.0991 421.942 83.1035C424.222 86.108 425.217 89.894 424.71 93.6313C424.202 97.3685 422.233 100.752 419.235 103.04L401.117 121.446C400.6 121.971 399.976 122.378 399.287 122.641C398.598 122.903 397.861 123.014 397.125 122.965C396.39 122.917 395.673 122.711 395.025 122.36C394.376 122.01 393.811 121.524 393.367 120.936L377.767 100.253C377.323 99.665 377.011 98.9877 376.853 98.2678C376.694 97.5478 376.693 96.8022 376.849 96.0817V96.0817Z" fill="#3F3D56"/>
<g id="Vector_13" filter="url(#filter2_d_5_2)">
<path d="M417.235 24.4757C420.488 14.11 427.884 4.60293 438.113 1.09876C448.343 -2.4054 463.321 2.93258 471.012 10.5969C485.079 24.6165 488.512 72.779 478.847 87.9989C476.925 87.8972 470.292 87.8219 468.346 87.749L465.594 78.5756V87.6586C450.407 87.1893 434.597 87.4831 418.778 87.787C417.36 77.0112 413.983 34.8414 417.235 24.4757Z" fill="#957D29"/>
</g>
<path id="Vector_14" d="M412.883 459.573H399.032L392.443 406.146L412.886 406.147L412.883 459.573Z" fill="#FFB6B6"/>
<g id="Vector_15" filter="url(#filter3_d_5_2)">
<path d="M534.137 450.96L520.734 454.453L500.881 404.416L520.663 399.261L534.137 450.96Z" fill="#FFB6B6"/>
</g>
<path id="Vector_16" d="M457.805 131.433L460.944 139.593L460.316 147.753L398.892 169.028L401.94 133.316L408.844 125.155L457.805 131.433Z" fill="#FFB6B6"/>
<path id="Vector_17" d="M438.384 57.9996C450.5 57.9996 460.322 48.1774 460.322 36.0612C460.322 23.945 450.5 14.1229 438.384 14.1229C426.268 14.1229 416.446 23.945 416.446 36.0612C416.446 48.1774 426.268 57.9996 438.384 57.9996Z" fill="#FFB7B7"/>
<path id="Vector_18" d="M423.31 7.49365C427.525 4.92384 432.353 3.53372 437.29 3.46864C442.226 3.40356 447.09 4.66591 451.371 7.1237C455.653 9.5815 459.196 13.1445 461.629 17.44C464.062 21.7356 465.297 26.6061 465.204 31.5421C453.245 34.5986 440.501 35.877 426.996 32.2782L423.909 24.7229L422.089 32.2838C417.958 35.1901 413.97 35.1848 410.126 32.2681C409.963 27.346 411.095 22.4673 413.409 18.1198C415.722 13.7722 419.136 10.1081 423.31 7.49365Z" fill="#957D29"/>
<path id="Vector_19" d="M419.079 485.874H409.251L407.496 476.594L403.003 485.874H376.935C375.685 485.874 374.469 485.475 373.462 484.734C372.456 483.994 371.712 482.951 371.34 481.758C370.968 480.565 370.988 479.284 371.395 478.103C371.803 476.922 372.577 475.902 373.605 475.192L394.422 460.815V451.433L416.319 452.74L419.079 485.874Z" fill="#2F2E41"/>
<g id="Vector_20" filter="url(#filter4_d_5_2)">
<path d="M547.982 474.531L538.471 477.01L534.432 468.473L532.425 478.586L507.2 485.161C505.991 485.476 504.712 485.397 503.552 484.934C502.391 484.471 501.409 483.65 500.748 482.589C500.087 481.529 499.783 480.285 499.879 479.039C499.975 477.793 500.467 476.611 501.283 475.664L517.801 456.501L515.435 447.423L536.953 443.165L547.982 474.531Z" fill="#2F2E41"/>
</g>
<g id="Vector_21" filter="url(#filter5_d_5_2)">
<path d="M532.437 417.361L491.836 333.914L479.091 232.347C487.878 216.027 471.558 182.819 471.558 182.819V168.876L408.338 180.802V180.803C395.407 216.071 389.137 253.433 389.845 290.99L392.393 426H391.594C390.267 426 388.996 426.527 388.058 427.464C387.12 428.402 386.594 429.674 386.594 431C386.594 432.326 387.12 433.598 388.058 434.536C388.996 435.473 390.267 436 391.594 436H416.594C417.92 436 419.191 435.473 420.129 434.536C421.067 433.598 421.594 432.326 421.594 431C421.594 429.674 421.067 428.402 420.129 427.464C419.191 426.527 417.92 426 416.594 426H415.949L433.896 254.243L454.764 339.001L505.194 417.04C503.907 417.141 502.71 417.735 501.853 418.7C500.996 419.664 500.546 420.924 500.598 422.213C500.649 423.502 501.199 424.721 502.13 425.614C503.062 426.506 504.303 427.003 505.594 427H530.594C531.756 427.001 532.883 426.597 533.78 425.856C534.676 425.116 535.286 424.086 535.505 422.944C535.723 421.802 535.536 420.619 534.976 419.6C534.416 418.581 533.518 417.789 532.437 417.361H532.437Z" fill="#474657"/>
</g>
<g id="Vector_22" filter="url(#filter6_d_5_2)">
<path d="M477.274 191.367H477.274C477.066 190.551 476.606 189.822 475.958 189.284C475.31 188.746 474.509 188.427 473.669 188.372C472.836 178.845 467.33 117.743 467.12 115.951L467.112 115.875L465.518 81.8172C465.46 80.5803 464.948 79.4081 464.081 78.5244C463.213 77.6408 462.051 77.1076 460.815 77.0269L452.394 76.4764C452.279 76.4725 452.169 76.4239 452.089 76.3409C452.009 76.2578 451.964 76.1467 451.964 76.0311C451.964 75.1012 451.781 74.1804 451.425 73.3212C451.069 72.462 450.547 71.6814 449.89 71.0238C449.232 70.3663 448.451 69.8446 447.592 69.4888C446.733 69.1329 445.812 68.9497 444.882 68.9497H419.951C418.336 68.9504 416.777 69.5404 415.567 70.609C414.356 71.6776 413.577 73.1513 413.376 74.7535C413.365 74.8639 413.312 74.9659 413.229 75.0394C413.146 75.1128 413.038 75.1522 412.928 75.1497L412.925 75.1496C410.092 75.0912 407.332 76.0504 405.146 77.8529C402.959 79.6554 401.492 82.1819 401.009 84.9739C397.601 104.805 390.77 149.814 394.147 174.836C395.323 183.547 394.789 196.648 394.344 203.936C394.3 204.64 394.395 205.346 394.624 206.014C394.853 206.681 395.212 207.297 395.68 207.826C394.685 208.112 393.841 208.774 393.325 209.671C392.809 210.567 392.661 211.63 392.913 212.633H392.913C393.173 213.662 393.83 214.545 394.741 215.089C395.651 215.633 396.741 215.793 397.77 215.534L474.373 196.223C475.402 195.964 476.285 195.307 476.829 194.396C477.373 193.485 477.533 192.396 477.274 191.367V191.367Z" fill="#3F3D56"/>
</g>
<g id="Vector_23" filter="url(#filter7_d_5_2)">
<path d="M350.668 334.55C350.654 332.313 349.848 330.154 348.394 328.455C346.94 326.756 344.93 325.627 342.723 325.268L206.908 302.966C205.606 302.75 204.273 302.81 202.995 303.14L171.166 311.37L152.903 316.098L119.201 324.81C117.166 325.338 115.365 326.527 114.078 328.189C112.792 329.852 112.094 331.894 112.094 333.996V476.311C112.104 478.48 112.853 480.581 114.219 482.268C115.584 483.954 117.484 485.124 119.604 485.584L257.941 484.018C258.59 484.157 259.253 484.226 259.917 484.223C260.885 484.225 261.848 484.078 262.771 483.788L344.96 485.834C346.9 485.228 348.593 484.014 349.788 482.37C350.982 480.727 351.616 478.742 351.593 476.71L350.668 334.55Z" fill="white"/>
</g>
<path id="Vector_24" d="M350.668 334.55C350.654 332.313 349.848 330.154 348.394 328.455C346.94 326.756 344.93 325.627 342.723 325.268L206.908 302.966C205.606 302.75 204.273 302.81 202.995 303.14L171.166 311.37L152.903 316.098L119.201 324.81C117.166 325.338 115.365 326.527 114.078 328.189C112.792 329.852 112.094 331.894 112.094 333.996V476.311C112.104 478.48 112.853 480.581 114.219 482.268C115.584 483.954 117.484 485.124 119.604 485.584L257.941 484.018C258.59 484.157 259.253 484.226 259.917 484.223C260.885 484.225 261.848 484.078 262.771 483.788L344.96 485.834C346.9 485.228 348.593 484.014 349.788 482.37C350.982 480.727 351.616 478.742 351.593 476.71L350.668 334.55ZM344.249 483.572L262.06 485.527C260.887 485.893 259.641 485.953 258.439 485.701L120.094 483.268C118.505 482.921 117.081 482.043 116.057 480.778C115.034 479.514 114.472 477.938 114.465 476.311V333.996C114.466 332.539 114.914 331.118 115.748 329.923C116.582 328.729 117.762 327.819 119.13 327.316C119.347 327.234 119.569 327.166 119.794 327.11L155.449 317.892L176.534 312.437L203.588 305.44C204.168 305.286 204.766 305.209 205.367 305.211C205.753 305.211 206.139 305.243 206.521 305.306L342.336 327.608C343.428 327.788 344.465 328.219 345.362 328.868C346.259 329.517 346.993 330.366 347.506 331.348C348.019 332.343 348.29 333.446 348.297 334.566L349.222 476.726C349.239 478.25 348.764 479.739 347.868 480.972C346.973 482.206 345.703 483.117 344.249 483.572V483.572Z" fill="#CCCCCC"/>
<path id="Vector_25" d="M347.506 331.348C347.414 331.409 347.312 331.454 347.206 331.482L307.257 342.282L294.822 345.642L259.451 355.2C259.35 355.225 259.246 355.238 259.142 355.239C259.071 355.238 259 355.233 258.929 355.224L116.307 329.221L115.833 329.134C115.524 329.076 115.251 328.898 115.073 328.639C114.894 328.38 114.826 328.061 114.883 327.752C114.939 327.443 115.116 327.168 115.374 326.989C115.632 326.809 115.95 326.739 116.26 326.794L119.13 327.316L259.095 352.836L289.58 344.598L306.633 339.989L345.964 329.356L346.589 329.19C346.859 329.118 347.145 329.144 347.398 329.263C347.651 329.381 347.854 329.585 347.973 329.838C348.003 329.898 348.027 329.962 348.044 330.028C348.109 330.276 348.092 330.539 347.995 330.777C347.898 331.015 347.726 331.216 347.506 331.348Z" fill="#CCCCCC"/>
<path id="Vector_26" d="M260.328 484.5C259.678 484.5 259.149 483.977 259.142 487.325L257.956 358.064C257.95 353.41 258.477 352.874 259.132 352.868H259.142C259.792 352.868 260.322 353.391 260.328 358.043L261.514 487.303C261.52 483.958 260.994 484.494 260.339 484.5H260.328Z" fill="#CCCCCC"/>
<path id="Vector_27" d="M307.594 486L294.821 486.135L289.58 344.598L155.837 317.987C155.706 317.964 155.576 317.932 155.449 317.892C154.422 317.6 153.524 316.967 152.904 316.098L171.166 311.37L176.534 312.437L303.439 337.681C304.106 337.812 304.737 338.087 305.288 338.485C305.84 338.884 306.298 339.397 306.633 339.989C307.028 340.677 307.586 485.178 307.594 486Z" fill="#AE471E" fill-opacity="0.72"/>
<path id="Vector_28" d="M409.896 75.4895C409.886 73.8039 409.278 72.1767 408.182 70.8962C407.086 69.6158 405.572 68.7649 403.908 68.4945L301.551 51.6862C300.57 51.5237 299.565 51.5684 298.602 51.8173L274.614 58.0199L260.85 61.5829L235.45 68.1489C233.917 68.5471 232.559 69.443 231.59 70.6959C230.62 71.9489 230.094 73.4882 230.094 75.0724V158.965C230.101 160.6 230.666 162.184 231.695 163.454C232.724 164.725 234.156 165.607 235.754 165.954L340.012 188.137C340.501 188.242 341.001 188.294 341.501 188.291C342.231 188.293 342.956 188.182 343.652 187.964L405.594 168.403C407.056 167.947 408.332 167.031 409.233 165.793C410.133 164.554 410.61 163.058 410.593 161.527L409.896 75.4895Z" fill="white"/>
<g id="Vector_29" filter="url(#filter8_d_5_2)">
<path d="M300.392 57.8469C300.317 57.8468 300.243 57.8564 300.171 57.8755L237.019 74.2072C236.827 74.2567 236.658 74.3685 236.536 74.5249C236.415 74.6813 236.35 74.8735 236.35 75.0712V158.962C236.35 159.167 236.421 159.365 236.549 159.523C236.678 159.682 236.857 159.792 237.056 159.836L341.314 182.018C341.465 182.05 341.622 182.042 341.769 181.996L403.712 162.435C403.895 162.379 404.054 162.264 404.167 162.109C404.279 161.955 404.338 161.768 404.336 161.577L403.641 75.5396C403.64 75.3291 403.564 75.126 403.427 74.9661C403.29 74.8062 403.101 74.7 402.893 74.6663L300.536 57.8586C300.489 57.8509 300.44 57.847 300.392 57.8469V57.8469Z" fill="#AE471E"/>
</g>
<path id="Vector_30" d="M409.896 75.4895C409.886 73.8039 409.278 72.1767 408.182 70.8962C407.086 69.6158 405.572 68.7649 403.908 68.4945L301.551 51.6862C300.57 51.5237 299.565 51.5684 298.602 51.8173L274.614 58.0199L260.85 61.5829L235.45 68.1489C233.917 68.5471 232.559 69.443 231.59 70.6959C230.62 71.9489 230.094 73.4882 230.094 75.0724V158.965C230.101 160.6 230.666 162.184 231.695 163.454C232.724 164.725 234.156 165.607 235.754 165.954L340.012 188.137C340.501 188.242 341.001 188.294 341.501 188.291C342.231 188.293 342.956 188.182 343.652 187.964L405.594 168.403C407.056 167.947 408.332 167.031 409.233 165.793C410.133 164.554 410.61 163.058 410.593 161.527L409.896 75.4895ZM405.058 166.699L343.116 186.26C342.232 186.535 341.293 186.58 340.387 186.391L236.123 164.208C234.925 163.947 233.852 163.285 233.081 162.332C232.31 161.379 231.887 160.191 231.881 158.965V75.0725C231.882 73.9745 232.219 72.9031 232.848 72.0028C233.476 71.1026 234.366 70.4167 235.396 70.0377C235.56 69.9763 235.727 69.9245 235.897 69.8828L262.769 62.9355L278.659 58.8243L299.049 53.5512C299.486 53.4345 299.937 53.3764 300.389 53.3784C300.681 53.3783 300.972 53.4022 301.259 53.4499L403.616 70.2582C404.44 70.3933 405.221 70.7183 405.897 71.2075C406.573 71.6966 407.127 72.3365 407.513 73.0765C407.9 73.8266 408.104 74.6575 408.109 75.5014L408.806 161.539C408.819 162.687 408.461 163.81 407.786 164.739C407.111 165.668 406.154 166.356 405.058 166.699V166.699Z" fill="#3F3D56"/>
<path id="Vector_31" d="M407.513 73.0765C407.443 73.1221 407.367 73.1563 407.287 73.1777L377.179 81.3167L367.807 83.849L341.15 91.0525C341.074 91.0712 340.996 91.0812 340.917 91.0823C340.864 91.0813 340.81 91.0773 340.757 91.0704L233.269 71.4736L232.912 71.4081C232.679 71.3646 232.473 71.2304 232.338 71.0352C232.204 70.8399 232.152 70.5993 232.195 70.3661C232.237 70.1329 232.37 69.9261 232.565 69.7908C232.76 69.6556 233 69.603 233.234 69.6445L235.396 70.0377L340.882 89.271L363.857 83.0625L376.709 79.5888L406.351 71.5749L406.822 71.4498C407.025 71.3962 407.241 71.4157 407.432 71.505C407.622 71.5943 407.775 71.7477 407.864 71.9384C407.888 71.9839 407.905 72.0319 407.918 72.0814C407.967 72.2687 407.954 72.467 407.881 72.6464C407.808 72.8258 407.679 72.9767 407.513 73.0765Z" fill="#3F3D56"/>
<path id="Vector_32" d="M341.811 188.5C341.575 188.5 341.349 188.407 341.182 188.241C341.015 188.075 340.919 187.85 340.917 187.614L340.024 90.1967C340.021 89.9597 340.114 89.7315 340.28 89.5624C340.446 89.3933 340.672 89.297 340.909 89.2948H340.917C341.153 89.2948 341.379 89.3878 341.546 89.5537C341.714 89.7195 341.809 89.9448 341.811 90.1804L342.705 187.598C342.707 187.835 342.615 188.063 342.449 188.232C342.283 188.402 342.056 188.498 341.819 188.5H341.811Z" fill="#3F3D56"/>
<path id="Vector_33" d="M377.179 176.649L367.807 179.181L363.857 83.0624L263.061 63.0069C262.962 62.9894 262.864 62.9656 262.769 62.9354C261.994 62.7149 261.318 62.2381 260.85 61.5829L274.614 58.0199L278.659 58.8242L374.302 77.849C374.804 77.9483 375.28 78.1552 375.695 78.4555C376.111 78.7558 376.457 79.1424 376.709 79.5888C377.007 80.1071 377.173 176.029 377.179 176.649Z" fill="#3F3D56"/>
<path id="Vector_34" d="M372.981 121.846C373.46 122.256 373.906 122.703 374.315 123.183L430.461 116.626L435.922 104.026L456.015 109.781L448.516 133.027C447.91 134.905 446.712 136.536 445.1 137.674C443.489 138.813 441.551 139.398 439.579 139.342L375.294 137.515C373.969 139.552 372.055 141.137 369.808 142.059C367.56 142.982 365.084 143.198 362.711 142.68C360.337 142.161 358.177 140.932 356.519 139.156C354.861 137.38 353.783 135.142 353.428 132.738C353.073 130.334 353.458 127.88 354.533 125.7C355.607 123.521 357.319 121.72 359.442 120.538C361.564 119.355 363.997 118.847 366.415 119.081C368.834 119.315 371.124 120.279 372.981 121.846V121.846Z" fill="#FFB6B6"/>
<path id="Vector_35" d="M429.146 113.718C428.84 113.047 428.683 112.318 428.685 111.581C428.687 110.844 428.848 110.116 429.157 109.447L439.945 86.0725C441.004 82.4531 443.456 79.4017 446.762 77.5872C450.069 75.7728 453.959 75.3436 457.582 76.3936C461.204 77.4436 464.262 79.8872 466.085 83.1885C467.908 86.4898 468.348 90.3795 467.308 94.0045L463.755 119.586C463.654 120.316 463.396 121.016 463 121.637C462.604 122.259 462.078 122.788 461.459 123.188C460.84 123.588 460.142 123.85 459.413 123.956C458.683 124.062 457.94 124.01 457.232 123.802L432.372 116.517C431.665 116.31 431.01 115.953 430.453 115.47C429.896 114.987 429.45 114.389 429.146 113.718V113.718Z" fill="#3F3D56"/>
<path id="Vector_36" d="M617.485 487.041H1.19064C0.875452 487.04 0.573473 486.914 0.350922 486.691C0.12837 486.468 0.00341797 486.166 0.00341797 485.85C0.00341797 485.535 0.12837 485.233 0.350922 485.01C0.573473 484.787 0.875452 484.661 1.19064 484.66H617.485C617.8 484.66 618.103 484.785 618.327 485.008C618.55 485.232 618.675 485.535 618.675 485.85C618.675 486.166 618.55 486.469 618.327 486.692C618.103 486.916 617.8 487.041 617.485 487.041Z" fill="#CACACA"/>
<g id="success-indicator">
<path id="Vector_37" d="M120.113 360.524C139.891 360.524 155.924 344.491 155.924 324.713C155.924 304.935 139.891 288.902 120.113 288.902C100.335 288.902 84.3016 304.935 84.3016 324.713C84.3016 344.491 100.335 360.524 120.113 360.524Z" fill="#4BB543"/>
<path id="Vector_38" d="M115.227 343.351C114.609 343.351 113.999 343.207 113.446 342.93C112.893 342.653 112.412 342.252 112.041 341.757L102.271 328.73C101.637 327.885 101.365 326.823 101.515 325.777C101.664 324.731 102.223 323.787 103.068 323.154C103.913 322.52 104.976 322.248 106.021 322.397C107.067 322.546 108.011 323.105 108.645 323.95L115.036 332.472L131.453 307.848C131.742 307.411 132.115 307.035 132.55 306.743C132.985 306.45 133.473 306.246 133.987 306.142C134.501 306.039 135.03 306.038 135.544 306.139C136.058 306.24 136.548 306.442 136.984 306.733C137.42 307.023 137.794 307.398 138.086 307.833C138.377 308.269 138.58 308.758 138.682 309.272C138.784 309.786 138.783 310.316 138.68 310.829C138.577 311.343 138.374 311.832 138.082 312.267L118.542 341.577C118.189 342.107 117.713 342.544 117.156 342.853C116.598 343.161 115.975 343.332 115.338 343.349C115.301 343.35 115.264 343.351 115.227 343.351Z" fill="white"/>
</g>
<path id="Vector_39" d="M272.595 134.5C272.483 134.5 272.372 134.488 272.264 134.463L241.264 127.463C240.876 127.375 240.539 127.137 240.327 126.801C240.115 126.465 240.045 126.058 240.132 125.67C240.22 125.283 240.458 124.945 240.793 124.733C241.129 124.52 241.536 124.45 241.924 124.537L272.924 131.537C273.284 131.618 273.601 131.829 273.815 132.13C274.029 132.43 274.125 132.799 274.084 133.166C274.044 133.532 273.869 133.871 273.594 134.118C273.319 134.364 272.964 134.5 272.595 134.5V134.5Z" fill="white"/>
<path id="Vector_40" d="M153.288 416.236C153.179 416.259 153.068 416.269 152.957 416.267L121.181 415.732C120.783 415.725 120.405 415.56 120.129 415.274C119.853 414.989 119.702 414.605 119.709 414.208C119.715 413.81 119.879 413.432 120.165 413.155C120.45 412.879 120.833 412.727 121.23 412.733L153.006 413.268C153.375 413.274 153.729 413.416 154 413.666C154.271 413.917 154.44 414.259 154.475 414.626C154.509 414.993 154.408 415.361 154.189 415.658C153.97 415.955 153.649 416.161 153.288 416.236V416.236Z" fill="#E6E6E6"/>
<path id="Vector_41" d="M164.288 433.236C164.179 433.259 164.068 433.269 163.957 433.267L132.181 432.732C131.783 432.725 131.405 432.56 131.129 432.274C130.853 431.989 130.702 431.605 130.709 431.208C130.715 430.81 130.879 430.432 131.165 430.155C131.45 429.879 131.833 429.727 132.23 429.733L164.006 430.268C164.375 430.274 164.729 430.416 165 430.666C165.271 430.917 165.44 431.259 165.475 431.626C165.509 431.993 165.408 432.361 165.189 432.658C164.97 432.955 164.649 433.161 164.288 433.236V433.236Z" fill="#E6E6E6"/>
</g>
<defs>
<filter id="filter0_d_5_2" x="143.102" y="191.734" width="75.0077" height="150.259" filterUnits="userSpaceOnUse" color-interpolation-filters="sRGB">
<feFlood flood-opacity="0" result="BackgroundImageFix"/>
<feColorMatrix in="SourceAlpha" type="matrix" values="0 0 0 0 0 0 0 0 0 0 0 0 0 0 0 0 0 0 127 0" result="hardAlpha"/>
<feOffset dy="4"/>
<feGaussianBlur stdDeviation="2"/>
<feComposite in2="hardAlpha" operator="out"/>
<feColorMatrix type="matrix" values="0 0 0 0 0 0 0 0 0 0 0 0 0 0 0 0 0 0 0.25 0"/>
<feBlend mode="normal" in2="BackgroundImageFix" result="effect1_dropShadow_5_2"/>
<feBlend mode="normal" in="SourceGraphic" in2="effect1_dropShadow_5_2" result="shape"/>
</filter>
<filter id="filter1_d_5_2" x="182.042" y="213.591" width="83.2916" height="130.008" filterUnits="userSpaceOnUse" color-interpolation-filters="sRGB">
<feFlood flood-opacity="0" result="BackgroundImageFix"/>
<feColorMatrix in="SourceAlpha" type="matrix" values="0 0 0 0 0 0 0 0 0 0 0 0 0 0 0 0 0 0 127 0" result="hardAlpha"/>
<feOffset dy="4"/>
<feGaussianBlur stdDeviation="2"/>
<feComposite in2="hardAlpha" operator="out"/>
<feColorMatrix type="matrix" values="0 0 0 0 0 0 0 0 0 0 0 0 0 0 0 0 0 0 0.25 0"/>
<feBlend mode="normal" in2="BackgroundImageFix" result="effect1_dropShadow_5_2"/>
<feBlend mode="normal" in="SourceGraphic" in2="effect1_dropShadow_5_2" result="shape"/>
</filter>
<filter id="filter2_d_5_2" x="415.866" y="-1" width="78.4607" height="95.9989" filterUnits="userSpaceOnUse" color-interpolation-filters="sRGB">
<feFlood flood-opacity="0" result="BackgroundImageFix"/>
<feColorMatrix in="SourceAlpha" type="matrix" values="0 0 0 0 0 0 0 0 0 0 0 0 0 0 0 0 0 0 127 0" result="hardAlpha"/>
<feOffset dx="6" dy="3"/>
<feGaussianBlur stdDeviation="2"/>
<feComposite in2="hardAlpha" operator="out"/>
<feColorMatrix type="matrix" values="0 0 0 0 0 0 0 0 0 0 0 0 0 0 0 0 0 0 0.25 0"/>
<feBlend mode="normal" in2="BackgroundImageFix" result="effect1_dropShadow_5_2"/>
<feBlend mode="normal" in="SourceGraphic" in2="effect1_dropShadow_5_2" result="shape"/>
</filter>
<filter id="filter3_d_5_2" x="500.881" y="398.261" width="43.2561" height="63.192" filterUnits="userSpaceOnUse" color-interpolation-filters="sRGB">
<feFlood flood-opacity="0" result="BackgroundImageFix"/>
<feColorMatrix in="SourceAlpha" type="matrix" values="0 0 0 0 0 0 0 0 0 0 0 0 0 0 0 0 0 0 127 0" result="hardAlpha"/>
<feOffset dx="6" dy="3"/>
<feGaussianBlur stdDeviation="2"/>
<feComposite in2="hardAlpha" operator="out"/>
<feColorMatrix type="matrix" values="0 0 0 0 0 0 0 0 0 0 0 0 0 0 0 0 0 0 0.25 0"/>
<feBlend mode="normal" in2="BackgroundImageFix" result="effect1_dropShadow_5_2"/>
<feBlend mode="normal" in="SourceGraphic" in2="effect1_dropShadow_5_2" result="shape"/>
</filter>
<filter id="filter4_d_5_2" x="499.862" y="442.165" width="58.1199" height="50.1856" filterUnits="userSpaceOnUse" color-interpolation-filters="sRGB">
<feFlood flood-opacity="0" result="BackgroundImageFix"/>
<feColorMatrix in="SourceAlpha" type="matrix" values="0 0 0 0 0 0 0 0 0 0 0 0 0 0 0 0 0 0 127 0" result="hardAlpha"/>
<feOffset dx="6" dy="3"/>
<feGaussianBlur stdDeviation="2"/>
<feComposite in2="hardAlpha" operator="out"/>
<feColorMatrix type="matrix" values="0 0 0 0 0 0 0 0 0 0 0 0 0 0 0 0 0 0 0.25 0"/>
<feBlend mode="normal" in2="BackgroundImageFix" result="effect1_dropShadow_5_2"/>
<feBlend mode="normal" in="SourceGraphic" in2="effect1_dropShadow_5_2" result="shape"/>
</filter>
<filter id="filter5_d_5_2" x="386.594" y="167.876" width="159" height="275.124" filterUnits="userSpaceOnUse" color-interpolation-filters="sRGB">
<feFlood flood-opacity="0" result="BackgroundImageFix"/>
<feColorMatrix in="SourceAlpha" type="matrix" values="0 0 0 0 0 0 0 0 0 0 0 0 0 0 0 0 0 0 127 0" result="hardAlpha"/>
<feOffset dx="6" dy="3"/>
<feGaussianBlur stdDeviation="2"/>
<feComposite in2="hardAlpha" operator="out"/>
<feColorMatrix type="matrix" values="0 0 0 0 0 0 0 0 0 0 0 0 0 0 0 0 0 0 0.25 0"/>
<feBlend mode="normal" in2="BackgroundImageFix" result="effect1_dropShadow_5_2"/>
<feBlend mode="normal" in="SourceGraphic" in2="effect1_dropShadow_5_2" result="shape"/>
</filter>
<filter id="filter6_d_5_2" x="392.793" y="67.9497" width="94.6023" height="154.706" filterUnits="userSpaceOnUse" color-interpolation-filters="sRGB">
<feFlood flood-opacity="0" result="BackgroundImageFix"/>
<feColorMatrix in="SourceAlpha" type="matrix" values="0 0 0 0 0 0 0 0 0 0 0 0 0 0 0 0 0 0 127 0" result="hardAlpha"/>
<feOffset dx="6" dy="3"/>
<feGaussianBlur stdDeviation="2"/>
<feComposite in2="hardAlpha" operator="out"/>
<feColorMatrix type="matrix" values="0 0 0 0 0 0 0 0 0 0 0 0 0 0 0 0 0 0 0.25 0"/>
<feBlend mode="normal" in2="BackgroundImageFix" result="effect1_dropShadow_5_2"/>
<feBlend mode="normal" in="SourceGraphic" in2="effect1_dropShadow_5_2" result="shape"/>
</filter>
<filter id="filter7_d_5_2" x="110.094" y="302.839" width="247.5" height="196.995" filterUnits="userSpaceOnUse" color-interpolation-filters="sRGB">
<feFlood flood-opacity="0" result="BackgroundImageFix"/>
<feColorMatrix in="SourceAlpha" type="matrix" values="0 0 0 0 0 0 0 0 0 0 0 0 0 0 0 0 0 0 127 0" result="hardAlpha"/>
<feOffset dx="2" dy="10"/>
<feGaussianBlur stdDeviation="2"/>
<feComposite in2="hardAlpha" operator="out"/>
<feColorMatrix type="matrix" values="0 0 0 0 0 0 0 0 0 0 0 0 0 0 0 0 0 0 0.25 0"/>
<feBlend mode="normal" in2="BackgroundImageFix" result="effect1_dropShadow_5_2"/>
<feBlend mode="normal" in="SourceGraphic" in2="effect1_dropShadow_5_2" result="shape"/>
</filter>
<filter id="filter8_d_5_2" x="232.35" y="57.8469" width="175.986" height="140.19" filterUnits="userSpaceOnUse" color-interpolation-filters="sRGB">
<feFlood flood-opacity="0" result="BackgroundImageFix"/>
<feColorMatrix in="SourceAlpha" type="matrix" values="0 0 0 0 0 0 0 0 0 0 0 0 0 0 0 0 0 0 127 0" result="hardAlpha"/>
<feOffset dy="12"/>
<feGaussianBlur stdDeviation="2"/>
<feComposite in2="hardAlpha" operator="out"/>
<feColorMatrix type="matrix" values="0 0 0 0 0 0 0 0 0 0 0 0 0 0 0 0 0 0 0.25 0"/>
<feBlend mode="normal" in2="BackgroundImageFix" result="effect1_dropShadow_5_2"/>
<feBlend mode="normal" in="SourceGraphic" in2="effect1_dropShadow_5_2" result="shape"/>
</filter>
<clipPath id="clip0_5_2">
<rect width="618.675" height="487.325" fill="white"/>
</clipPath>
</defs>
</svg>
