<svg width="518" height="546" viewBox="0 0 518 546" fill="none" xmlns="http://www.w3.org/2000/svg">
<g clip-path="url(#clip0_6_2)">
<path d="M30.0737 499.171C35.1258 516.698 49.8773 528.966 65.265 539.388C67.4135 540.844 69.5628 542.266 71.7127 543.655C71.7272 543.661 71.7422 543.675 71.757 543.681C71.8604 543.747 71.964 543.814 72.0604 543.881C72.5041 544.167 72.948 544.453 73.3881 544.736L73.1463 544.844C73.1463 544.844 72.909 544.971 73.1687 544.865C73.246 544.832 73.3269 544.803 73.404 544.771C82.3433 541.165 91.4414 537.294 98.292 530.54C105.398 523.527 109.552 512.526 105.703 503.312C105.198 502.105 104.559 500.959 103.799 499.894C103.486 499.447 103.15 499.019 102.8 498.6C100.678 496.009 97.9033 494.031 94.7625 492.868C91.6217 491.705 88.2278 491.399 84.9299 491.983C81.6319 492.566 78.5489 494.018 75.9978 496.188C73.4467 498.358 71.5196 501.168 70.4147 504.33C69.2842 493.804 77.9635 484.987 86.316 478.481C94.6722 471.979 104.167 464.898 105.783 454.431C106.685 448.607 104.66 442.963 100.971 438.432C100.856 438.294 100.742 438.157 100.625 438.023C96.1338 432.746 89.8175 429.358 82.9374 428.534C70.1242 427.203 57.6782 433.985 48.3697 442.894C33.3877 457.227 24.3304 479.244 30.0737 499.171Z" fill="#F2F2F2"/>
<path d="M54.1579 476.247C51.6988 480.073 49.8108 484.237 48.5534 488.608C47.4902 492.514 47.0169 496.558 47.1494 500.605C47.4924 508.931 49.83 517.054 53.9656 524.289C57.0809 529.778 60.8774 534.852 65.265 539.388C67.4135 540.844 69.5627 542.266 71.7126 543.654C71.7272 543.661 71.7422 543.674 71.757 543.681C71.8604 543.747 71.964 543.814 72.0604 543.881C72.5041 544.167 72.948 544.453 73.388 544.736C73.388 544.736 72.909 544.971 73.1686 544.865C73.2459 544.832 73.3269 544.803 73.404 544.771C72.6028 538.202 73.3877 531.537 75.6929 525.334C77.9981 519.131 81.7564 513.571 86.653 509.12C91.5614 504.737 97.4362 501.575 103.799 499.894C103.486 499.447 103.15 499.019 102.8 498.6C100.343 499.289 97.9515 500.194 95.6536 501.304C87.4395 505.249 80.7138 511.733 76.4718 519.798C72.6653 527.121 71.027 535.378 71.7493 543.599C71.382 543.266 71.0143 542.926 70.6576 542.589C63.8647 536.256 57.8313 528.987 53.748 520.597C50.2056 513.493 48.4645 505.626 48.6782 497.69C49.0115 489.037 52.4592 481.021 57.4511 474.044C62.9223 466.6 69.3857 459.938 76.6617 454.245C83.9942 448.372 92.0179 443.419 100.554 439.495C100.746 439.405 100.897 439.244 100.975 439.047C101.052 438.849 101.051 438.629 100.971 438.432C100.914 438.256 100.789 438.109 100.625 438.023C100.54 437.987 100.448 437.97 100.356 437.974C100.264 437.977 100.174 438.002 100.092 438.046C99.0383 438.531 97.9917 439.023 96.9535 439.536C88.3063 443.81 80.2236 449.142 72.8911 455.408C65.8083 461.447 59.1402 468.346 54.1579 476.247Z" fill="#478A6A" fill-opacity="0.5"/>
<path d="M202.627 231.998C217.071 224.102 222.172 205.611 214.02 190.697C205.867 175.783 187.548 170.094 173.104 177.991C158.659 185.887 153.558 204.378 161.71 219.292C169.863 234.205 188.182 239.894 202.627 231.998Z" fill="#2F2E41"/>
<path d="M187.865 237.462C201.43 237.462 212.426 226.466 212.426 212.901C212.426 199.336 201.43 188.34 187.865 188.34C174.3 188.34 163.304 199.336 163.304 212.901C163.304 226.466 174.3 237.462 187.865 237.462Z" fill="#FFB8B8"/>
<path d="M174.696 250.47L171.537 259.404L176.183 286.293L195.329 302.201L210.534 278.691L203.213 256.447L197.723 250.253C197.776 249.696 197.715 249.134 197.541 248.603C197.368 248.071 197.086 247.581 196.714 247.163C196.342 246.745 195.888 246.409 195.38 246.175C194.871 245.941 194.32 245.814 193.761 245.803L181.77 245.57C180.226 245.54 178.711 245.997 177.441 246.877C176.171 247.756 175.211 249.013 174.696 250.47V250.47Z" fill="#CCCCCC"/>
<path d="M225.576 533.697L237.836 533.695L239.529 486.407L225.572 486.409L225.576 533.697Z" fill="#FFB8B8"/>
<path d="M261.481 545.077L222.95 545.081L222.949 530.194L246.593 530.192C250.541 530.192 254.328 531.76 257.12 534.551C259.912 537.343 261.48 541.129 261.481 545.077V545.077L261.481 545.077Z" fill="#2F2E41"/>
<path d="M139.693 533.697L151.953 533.695L157.783 486.407L139.689 486.409L139.693 533.697Z" fill="#FFB8B8"/>
<path d="M175.598 545.077L137.067 545.081L137.066 530.194L160.71 530.192C164.658 530.192 168.444 531.76 171.237 534.551C174.029 537.343 175.597 541.129 175.598 545.077L175.598 545.077Z" fill="#2F2E41"/>
<path d="M247.489 201.607C248.747 202.368 249.822 203.395 250.64 204.617C251.458 205.838 251.998 207.224 252.222 208.677C252.447 210.13 252.35 211.614 251.938 213.026C251.527 214.437 250.811 215.741 249.841 216.846L259.981 237.467L248.952 246.685L235.042 217.363C233.294 215.611 232.25 213.278 232.107 210.807C231.964 208.336 232.733 205.899 234.267 203.956C235.801 202.014 237.995 200.702 240.431 200.269C242.868 199.836 245.379 200.312 247.489 201.607H247.489Z" fill="#FFB8B8"/>
<path d="M174.393 363.08C168.416 363.002 162.45 362.562 156.526 361.762C155.513 361.634 154.538 361.29 153.669 360.754C152.799 360.218 152.055 359.501 151.486 358.653C150.917 357.804 150.537 356.844 150.371 355.836C150.205 354.828 150.257 353.796 150.523 352.81L163.795 303.669L153.107 273.685C151.955 270.446 152.084 266.891 153.468 263.744C154.851 260.598 157.384 258.099 160.548 256.759L175.229 250.552L179.641 277.865L190.153 291.12C190.502 291.56 190.955 291.907 191.47 292.131C191.985 292.354 192.547 292.448 193.107 292.402C193.667 292.357 194.207 292.174 194.68 291.871C195.152 291.567 195.542 291.151 195.816 290.661L203.799 276.352L197.278 250.06L207 251.21C210.138 251.592 213.106 252.847 215.566 254.834C218.026 256.82 219.878 259.457 220.912 262.445C223.899 271.133 224.16 280.527 221.658 289.368L217.63 303.68L224.704 349.401C224.897 350.647 224.836 351.919 224.523 353.141C224.21 354.362 223.653 355.507 222.884 356.507C222.116 357.506 221.153 358.34 220.053 358.956C218.953 359.572 217.74 359.959 216.486 360.092C211.966 360.613 207.414 360.803 202.866 360.662C198.74 360.486 195.841 357.97 194.484 353.385C194.411 353.116 194.251 352.879 194.03 352.71C193.809 352.541 193.539 352.449 193.261 352.447C192.983 352.446 192.711 352.535 192.489 352.702C192.266 352.869 192.104 353.104 192.028 353.372C191.652 354.704 191.239 356.186 190.788 357.82C189.695 361.787 182.851 363.08 174.393 363.08Z" fill="#2F2E41"/>
<path d="M217.049 274.379C215.83 274.383 214.623 274.144 213.497 273.678C212.174 273.13 211.007 272.265 210.097 271.16C209.187 270.055 208.562 268.743 208.278 267.34C207.85 265.114 208.148 262.81 209.129 260.767C210.11 258.724 211.722 257.05 213.726 255.993L242.373 240.439L240.806 234.244C240.589 233.294 240.656 232.301 240.999 231.388C241.341 230.476 241.943 229.684 242.731 229.11L250.118 223.623C250.679 223.193 251.33 222.893 252.022 222.747C252.714 222.601 253.43 222.612 254.118 222.778C254.723 222.931 255.288 223.216 255.769 223.615C256.25 224.014 256.635 224.515 256.897 225.083L260.735 233.368C263.771 239.923 261.175 247.997 254.696 252.147L222.567 272.729C220.923 273.795 219.008 274.368 217.049 274.379V274.379Z" fill="#2F2E41"/>
<path d="M156.696 511.714C156.596 511.714 156.496 511.711 156.395 511.705L140.786 511.078C140.18 511.04 139.589 510.88 139.047 510.608C138.505 510.336 138.023 509.957 137.631 509.494C137.24 509.031 136.945 508.493 136.766 507.914C136.587 507.334 136.528 506.724 136.59 506.121L152.432 353.71L194.008 338.591L218.492 352.446L245.277 500.126C245.488 501.256 245.258 502.424 244.634 503.39C244.011 504.356 243.042 505.047 241.925 505.321L241.861 505.337L225.882 504.944C224.781 505.193 223.626 505.021 222.646 504.46C221.666 503.9 220.931 502.992 220.587 501.917L186.558 382.503C186.456 382.192 186.255 381.922 185.985 381.736C185.715 381.549 185.391 381.457 185.063 381.472C184.736 381.487 184.422 381.609 184.17 381.82C183.919 382.03 183.743 382.317 183.67 382.637L161.08 508.19C160.861 509.19 160.306 510.084 159.509 510.725C158.711 511.366 157.719 511.715 156.696 511.714V511.714Z" fill="#2F2E41"/>
<path d="M166.413 197.396C162.506 202.511 165.48 211.217 171.7 212.874C177.919 214.531 184.83 208.456 183.985 202.075C182.642 208.77 188.372 215.776 195.174 216.371C201.976 216.967 208.59 211.637 210.078 204.973C211.566 198.31 208.245 191.029 202.591 187.201C196.937 183.372 189.366 182.875 182.968 185.262C176.438 187.704 170.709 191.903 166.413 197.396V197.396Z" fill="#2F2E41"/>
<path d="M196.021 175.562C192.383 167.927 188.645 160.146 182.765 154.067C176.885 147.988 168.378 143.801 160.043 145.235C151.708 146.668 144.53 155.08 146.376 163.334C147.314 167.526 143.724 171.68 139.586 172.835C135.449 173.99 131.039 172.91 126.948 171.598C122.857 170.285 118.713 168.718 114.421 168.903C105.815 169.273 98.6199 177.42 98.3175 186.028C98.0152 194.637 103.871 202.832 111.728 206.363C119.585 209.895 128.983 209.104 136.733 205.343C144.483 201.582 150.679 195.098 155.211 187.772C161.906 176.946 178.732 174.276 188.45 182.497C189.491 183.314 190.801 183.709 192.12 183.603C193.439 183.498 194.669 182.899 195.566 181.926C197.285 179.921 197.036 176.538 196.021 175.562Z" fill="#2F2E41"/>
<path d="M379.551 132.654L371.358 125.262C342.261 98.5479 323.051 81.209 323.051 59.6099C323.051 41.9879 336.611 28.3461 354.126 28.3461C358.976 28.372 363.763 29.4531 368.154 31.5146C372.544 33.576 376.433 36.5683 379.551 40.2837C382.669 36.5682 386.558 33.5759 390.949 31.5144C395.339 29.453 400.126 28.3719 404.976 28.3461C422.492 28.3461 436.051 41.9879 436.051 59.6099C436.051 81.2092 416.841 98.5482 387.745 125.262L379.551 132.654Z" fill="#AE471E"/>
<path d="M244.662 183.485C243.895 183.218 243.23 182.717 242.762 182.052C242.294 181.388 242.045 180.593 242.051 179.78V9C242.054 6.61389 243.003 4.32629 244.69 2.63905C246.377 0.951817 248.665 0.00272874 251.051 0H508.051C510.437 0.00272874 512.725 0.951817 514.412 2.63905C516.099 4.32629 517.048 6.61389 517.051 9V153C517.048 155.386 516.099 157.674 514.412 159.361C512.725 161.048 510.437 161.997 508.051 162H265.616L249.03 182.272C248.666 182.724 248.206 183.088 247.682 183.339C247.159 183.589 246.587 183.72 246.007 183.721C245.548 183.72 245.094 183.64 244.662 183.485V183.485ZM251.051 2C249.195 2.00208 247.416 2.74025 246.104 4.05255C244.791 5.36485 244.053 7.14412 244.051 9V179.78C244.051 180.179 244.175 180.568 244.404 180.895C244.634 181.221 244.959 181.468 245.335 181.602C245.711 181.736 246.119 181.751 246.503 181.644C246.888 181.537 247.23 181.314 247.482 181.005L264.668 160H508.051C509.907 159.998 511.686 159.26 512.999 157.947C514.311 156.635 515.049 154.856 515.051 153V9C515.049 7.14412 514.311 5.36485 512.999 4.05255C511.686 2.74025 509.907 2.00208 508.051 2H251.051Z" fill="#3F3D56" fill-opacity="0.4"/>
<path d="M168.878 339.354L167.142 335.317C161.052 320.813 156.982 311.346 160.572 303.529C161.875 300.557 164.305 298.224 167.328 297.043C170.35 295.862 173.719 295.93 176.691 297.233C176.799 297.28 176.907 297.33 177.014 297.38C178.765 298.196 180.317 299.382 181.564 300.858C182.81 302.334 183.72 304.063 184.231 305.926C185.977 305.1 187.882 304.663 189.813 304.647C191.745 304.631 193.656 305.035 195.416 305.832C196.884 306.486 198.209 307.422 199.314 308.588C200.42 309.754 201.286 311.126 201.861 312.626C202.437 314.127 202.711 315.726 202.669 317.332C202.627 318.938 202.268 320.521 201.614 321.989C201.566 322.097 201.517 322.204 201.465 322.311C197.875 330.127 188.042 333.209 173.072 338.04L168.878 339.354Z" fill="#AE471E"/>
<path d="M175.571 319.524C175.103 318.13 174.335 316.856 173.322 315.791C172.309 314.726 171.074 313.896 169.705 313.36C168.336 312.824 166.867 312.595 165.4 312.688C163.932 312.781 162.504 313.195 161.214 313.9L143.24 300.398L138.901 312.749L157.476 328.229C158.805 330.317 160.853 331.846 163.233 332.525C165.613 333.204 168.16 332.986 170.39 331.913C172.62 330.84 174.38 328.987 175.335 326.703C176.289 324.42 176.373 321.865 175.571 319.524H175.571Z" fill="#FFB8B8"/>
<path d="M149.799 323.783C149.007 323.783 148.232 323.558 147.563 323.134L139.844 318.255C133.737 314.396 131.538 306.206 134.728 299.204L150.552 264.482C151.187 263.027 152.165 261.747 153.402 260.751C154.639 259.756 156.099 259.075 157.656 258.766C159.064 258.508 160.514 258.601 161.878 259.035C163.243 259.47 164.479 260.233 165.478 261.258C167.046 262.895 168.046 264.993 168.33 267.241C168.614 269.49 168.168 271.77 167.058 273.746L151.432 302.354L156.11 306.707C156.807 307.388 157.29 308.258 157.497 309.21C157.705 310.163 157.629 311.155 157.278 312.064L154.05 320.681C153.811 321.347 153.427 321.951 152.925 322.45C152.423 322.948 151.816 323.328 151.148 323.561C150.713 323.708 150.258 323.782 149.799 323.783V323.783Z" fill="#2F2E41"/>
<path d="M315 546H1C0.734784 546 0.480444 545.895 0.292908 545.707C0.105371 545.52 0 545.265 0 545C0 544.735 0.105371 544.48 0.292908 544.293C0.480444 544.105 0.734784 544 1 544H315C315.265 544 315.52 544.105 315.707 544.293C315.895 544.48 316 544.735 316 545C316 545.265 315.895 545.52 315.707 545.707C315.52 545.895 315.265 546 315 546Z" fill="#CCCCCC"/>
</g>
<defs>
<clipPath id="clip0_6_2">
<rect width="517.051" height="546" fill="white"/>
</clipPath>
</defs>
</svg>
